<?xml version="1.0" encoding="UTF-8" standalone="no"?> <!-- Created with Vectornator for iOS (http://vectornator.io/) --><!DOCTYPE svg PUBLIC "-//W3C//DTD SVG 1.1//EN" "http://www.w3.org/Graphics/SVG/1.1/DTD/svg11.dtd">
<svg style="fill-rule:evenodd;clip-rule:evenodd;stroke-linecap:round;stroke-linejoin:round;" xmlns:vectornator="http://vectornator.io" xmlns:xlink="http://www.w3.org/1999/xlink" xmlns="http://www.w3.org/2000/svg" xml:space="preserve" version="1.1" viewBox="0 0 1024 1024">
<metadata>
<vectornator:setting key="DimensionsVisible" value="1"/>
<vectornator:setting key="SnapToGrid" value="0"/>
<vectornator:setting key="SnapToPoints" value="0"/>
<vectornator:setting key="GuidesVisible" value="1"/>
<vectornator:setting key="RulersVisible" value="1"/>
<vectornator:setting key="SnapToEdges" value="0"/>
<vectornator:setting key="DisplayWhiteBackground" value="0"/>
<vectornator:setting key="SnapToGuides" value="1"/>
<vectornator:setting key="GridSpacing" value="36"/>
<vectornator:setting key="Units" value="Pixels"/>
<vectornator:setting key="DynamicGuides" value="0"/>
<vectornator:setting key="New" value="1"/>
</metadata>
<defs>
<linearGradient y1="528.212" id="LinearGradient" x1="37.6143" y2="528.212" x2="990.434" gradientUnits="userSpaceOnUse" gradientTransform="matrix(1 0 0 1 0 0)">
<stop stop-color="#efd864" offset="0.114078"/>
<stop stop-color="#edb549" offset="0.288835"/>
<stop stop-color="#e37553" offset="0.531553"/>
<stop stop-color="#e23964" offset="0.752427"/>
<stop stop-color="#db3333" offset="0.878641"/>
</linearGradient>
<linearGradient y1="531.037" id="LinearGradient_2" x1="121.544" y2="531.037" x2="925.151" gradientUnits="userSpaceOnUse" gradientTransform="matrix(0.00141211 0.999999 -0.999999 0.00141211 1041.64 6.94002)">
<stop stop-color="#efd864" offset="0.114078"/>
<stop stop-color="#edb549" offset="0.288835"/>
<stop stop-color="#e37553" offset="0.531553"/>
<stop stop-color="#e23964" offset="0.752427"/>
<stop stop-color="#db3333" offset="0.878641"/>
</linearGradient>
<linearGradient y1="509.956" id="LinearGradient_3" x1="69.0397" y2="509.956" x2="974.529" gradientUnits="userSpaceOnUse" gradientTransform="matrix(-0.00256757 0.999997 -0.999997 -0.00256757 1033.08 -10.5177)">
<stop stop-color="#efd864" offset="0.114078"/>
<stop stop-color="#edb549" offset="0.288835"/>
<stop stop-color="#e37553" offset="0.531553"/>
<stop stop-color="#e23964" offset="0.752427"/>
<stop stop-color="#db3333" offset="0.878641"/>
</linearGradient>
<linearGradient y1="525.162" id="LinearGradient_4" x1="85.5246" y2="525.162" x2="962.585" gradientUnits="userSpaceOnUse" gradientTransform="matrix(-4.37114e-08 1 -1 -4.37114e-08 1047.25 -18.5577)">
<stop stop-color="#efd864" offset="0.114078"/>
<stop stop-color="#edb549" offset="0.288835"/>
<stop stop-color="#e37553" offset="0.531553"/>
<stop stop-color="#e23964" offset="0.752427"/>
<stop stop-color="#db3333" offset="0.878641"/>
</linearGradient>
</defs>
<g id="Layer 5" vectornator:layerName="Layer 5" visibility="hidden">
<path d="M-154.486+514.858C-154.486+116.632+115.965-206.193+449.582-206.193C597.333-206.193+919.013-150.76+1035.94-107.567C1152.86-64.3746+1194.37+605.854+1194.37+827.716C1194.37+1225.94+498.157+1096.04+164.539+1096.04C-169.079+1096.04-154.486+913.083-154.486+514.858Z" opacity="1" fill="#7570de"/>
<path d="M-135.039+486.768C-135.039+88.543+135.411-234.283+469.029-234.283C616.779-234.283+938.46-178.849+1055.38-135.657C1172.31-92.4641+1213.82+577.764+1213.82+799.627C1213.82+1197.85+517.603+1067.95+183.986+1067.95C-149.632+1067.95-135.039+884.994-135.039+486.768Z" opacity="1" fill="#120fc4"/>
<path d="M-191.595+366.998C-191.595-31.2276+163.972-224.762+497.589-224.762C645.34-224.762+967.02-169.329+1083.94-126.137C1200.87-82.944+1242.38+587.285+1242.38+809.147C1242.38+1207.37+480.939+1113.38+147.321+1113.38C-186.297+1113.38-191.595+765.223-191.595+366.998Z" opacity="1" fill="#4442f9"/>
</g>
<g id="Layer 6" vectornator:layerName="Layer 6">
<path d="M514.031+68.6562C490.175+68.6563+509.603+550.273+495.781+575.031C436.684+680.89+413.711+499.37+344.688+561.688C251.804+645.547+37.625+395.817+37.625+528.219C37.625+782.023+250.917+987.781+514.031+987.781C777.145+987.781+990.438+782.023+990.438+528.219C990.438+475.222+949.124+560.766+848.875+595.625C760.246+626.444+613.378+604.235+584.75+605.844C557.058+607.399+479.886+529.688+659.938+503.656C700.275+497.824+902.338+486.387+889.969+444.844C857.178+334.715+595.802+68.6562+514.031+68.6562ZM701.531+695.812C709.884+696.469+717.434+701.989+720.25+710.438C724.005+721.702+717.921+733.87+706.656+737.625C697.299+740.744+687.106+742.301+674.188+743.125C670.001+743.392+654.38+744.004+652.5+744.094C648.414+744.288+645.018+743.902+640.188+743.094C639.867+744.168+639.599+744.932+639.25+746.188C639.402+745.64+635.065+762.203+633.969+765.125C633.44+766.535+632.987+768.074+632.562+769.906C632.439+770.438+632.272+771.439+632.156+772C646.43+769.13+661.603+767.75+678.688+767.75C690.562+767.75+700.188+777.376+700.188+789.25C700.188+801.124+690.562+810.75+678.688+810.75C657.779+810.75+640.952+812.86+626+817.844C624.913+818.206+623.814+818.41+622.719+818.594C620.937+826.457+619.12+833.966+617.125+841.062C608.39+872.137+597.883+894.408+582.219+907.281C570.295+917.081+555.774+920.62+540.719+916.25C527.175+912.318+514.449+902.387+501.719+886.719C492.758+875.689+485.809+863.2+480.875+850C480.38+850.961+479.906+851.985+479.406+852.938C472.341+866.394+465.321+877.858+458.094+887.188C448.288+899.844+438.185+908.578+426.5+912.531C412.647+917.218+398.459+914.194+387.062+903.938C376.433+894.371+369.609+881.765+365.75+866.688C362.777+855.072+361.611+842.281+361.688+827.344C361.728+819.37+362.03+812.301+362.781+800.188C363.636+786.41+363.844+782.781+363.844+777.719C363.844+774.799+363.945+772.942+364.344+767.5C364.546+764.738+364.631+763.265+364.688+761.75C364.778+759.319+364.68+757.613+364.5+756.344C363.283+755.771+361.538+755.155+358.5+754.375C358.001+754.247+355.05+753.512+355+753.5C351.135+752.546+348.871+751.957+346.281+751.094C335.016+747.339+328.933+735.14+332.688+723.875C336.442+712.61+348.61+706.526+359.875+710.281C361.063+710.677+362.51+711.058+365.312+711.75C365.337+711.756+368.588+712.588+369.219+712.75C375.114+714.264+379.494+715.725+384+717.969C390.705+721.308+396.337+725.896+400.531+732.188C406.59+741.276+408.117+750.931+407.656+763.344C407.575+765.525+407.457+767.371+407.219+770.625C406.906+774.888+406.844+776.272+406.844+777.719C406.844+784.062+406.641+787.97+405.719+802.844C405.015+814.188+404.723+820.661+404.688+827.594C404.576+849.367+407.856+863.273+414.562+870.562C415.186+870.145+415.527+870.043+416.406+869.281C418.71+867.284+421.313+864.434+424.094+860.844C429.549+853.801+435.321+844.38+441.312+832.969C445.513+824.969+449.558+816.523+454+806.688C455.07+804.319+461.408+790.045+462.688+787.344C463.661+785.288+464.695+783.201+465.938+780.844C466.726+779.348+467.215+778.452+468.812+775.5C472.202+769.237+473.59+766.335+474.844+763.25C474.861+763.053+474.898+762.847+474.906+762.75C475.017+761.429+475.072+760.711+475.188+759.781C475.419+757.914+475.735+756.242+476.312+754.375C476.88+752.541+477.649+750.754+478.812+748.875C480.982+745.371+484.089+742.327+488.562+740.312C494.153+737.795+500.245+737.809+505.562+739.875C508.846+741.151+511.322+742.947+513.438+745.062C520.424+752.049+520.227+746.826+519.719+761.156C519.704+761.576+519.687+761.937+519.656+762.344C519.621+762.807+519.565+763.354+519.5+764.031C519.394+765.126+517.555+782.157+517.531+782.375C516.373+792.991+515.739+799.085+515.656+800.5C514.432+821.312+521.567+842.945+535.094+859.594C542.796+869.073+548.914+873.864+552.719+874.969C553.564+875.215+553.567+875.189+554.938+874.062C561.708+868.498+569.274+852.475+575.75+829.438C578.245+820.561+580.469+811.127+582.75+800.281C583.792+795.327+586.875+779.877+587.438+777.25C587.839+775.378+588.104+773.981+588.781+770.031C589.56+765.489+590.007+763.121+590.688+760.188C591.514+756.624+592.486+753.318+593.719+750.031C593.904+749.536+597.191+736.925+597.812+734.688C600.443+725.217+602.639+718.88+605.688+713.75C607.791+710.21+610.248+707.22+614+704.719C619.997+700.72+626.563+699.087+633.5+699.094C637.452+699.097+640.056+699.45+645.656+700.438C645.977+700.494+646.139+700.532+646.312+700.562C647.903+700.841+648.778+700.976+649.531+701.062C649.858+701.1+650.456+701.155+650.438+701.156C652.514+701.057+654.43+700.97+657.844+700.844C665.169+700.573+667.775+700.452+671.438+700.219C680.977+699.611+687.923+698.557+693.062+696.844C695.879+695.905+698.747+695.594+701.531+695.812Z" opacity="1" fill="url(#LinearGradient)"/>
</g>
<g id="Layer 2" vectornator:layerName="Layer 2" visibility="hidden">
<path d="M484.938+22.1875L484+581.094C318.315+581.328+96.641+264.127+96.875+429.812L97.1875+633.438C97.4214+799.123+231.908+933.234+397.594+933L626.219+932.688C791.904+932.453+926.046+797.935+925.813+632.25L925.531+428.656C925.297+262.971+736.81+579.016+571.125+579.25L851.969+247.406L484.938+22.1875ZM690.375+657.469C692.672+657.649+695.193+658.024+698.625+658.594C699.932+658.811+700.567+658.938+701.219+659.031C712.974+660.71+721.117+671.589+719.438+683.344C717.758+695.098+706.88+703.273+695.125+701.594C694.054+701.441+693.212+701.3+691.594+701.031C691.021+700.936+691.001+700.941+690.594+700.875C689.428+705.801+688.51+708.887+686.625+712.656C683.286+719.335+680.367+724.703+674.344+735.531C673.881+736.363+673.655+736.797+673.438+737.188C665.301+751.817+661.462+759.145+657.656+767.844C655.268+773.304+653.687+778.171+650.438+789.344C649.797+791.546+649.586+792.296+649.25+793.438C645.626+805.75+642.749+813.782+638.469+822.344C638.263+822.755+638.048+823.217+637.813+823.719C637.035+825.375+633.457+833.594+632.438+835.812C628.251+844.924+624.231+851.677+618.688+857.594C610.353+866.489+599.676+871.688+587.125+871.688C555.611+871.687+534.576+853.332+524.906+824.094C521.014+812.324+519.149+799.214+518.562+785.156C515.115+788.941+511.291+792.991+506.562+797.719C506.582+797.699+504.641+799.639+504.094+800.188C500.406+803.879+498.1+806.229+495.875+808.625C494.063+810.577+491.834+813.48+488.844+817.781C487.303+819.997+480.936+829.442+479.344+831.75C468.815+847.01+460.412+856.731+449.625+864.031C433.481+874.957+414.977+877.047+396.188+868.375C387.85+864.527+382.511+857.675+379.188+849.094C376.997+843.437+375.658+836.906+374.906+829.375C373.751+817.8+373.988+803.666+375.25+786.656C375.858+778.461+376.661+769.949+377.75+760.094C378.282+755.282+380.083+739.856+379.906+741.406C380.581+735.504+380.937+732.002+381.062+729.875C381.083+729.522+381.158+729.049+381.188+728.688C370.692+732.181+359.092+727.226+354.656+716.875C349.979+705.961+355.055+693.302+365.969+688.625C365.602+688.782+365.36+688.91+365.188+689C365.201+688.993+366.347+688.313+367.188+687.812C367.394+687.689+372.269+684.803+373.344+684.188C374.658+683.435+375.903+682.745+377.125+682.094C381.176+679.936+384.784+678.302+388.375+677.188C391.269+676.289+394.121+675.736+397.188+675.656C402.645+675.513+408.135+676.886+413.062+680.719C419.516+685.738+423.044+692.541+424.688+700.281C425.71+705.094+425.971+710.111+425.719+715.656C425.566+719.028+425.225+722.262+424.719+726.312C424.613+727.155+424.256+729.977+424.188+730.531C424.061+731.551+424.013+732.192+424+732.406C423.813+735.591+423.39+739.586+422.625+746.281C422.79+744.836+421.017+760.138+420.5+764.812C419.463+774.196+418.689+782.235+418.125+789.844C417.032+804.583+416.86+816.523+417.719+825.125C417.937+827.312+418.227+829.073+418.531+830.562C420.875+830.822+422.916+830.208+425.531+828.438C430.675+824.956+436.285+818.448+443.969+807.312C445.363+805.291+451.764+795.792+453.531+793.25C457.578+787.427+460.867+783.119+464.344+779.375C467.011+776.502+469.625+773.816+473.656+769.781C474.218+769.219+476.187+767.282+476.156+767.312C489.016+754.456+494.455+748.028+498.344+740.25C498.503+739.931+503.584+726.935+505.812+721.781C509.826+712.503+513.53+705.488+517.906+700.062C520.066+697.385+522.423+695.091+525.188+693.156C529.515+690.128+534.563+688.219+540.312+688.219C548.841+688.219+555.254+692.593+559.125+698.5C560.904+701.215+561.919+703.847+562.625+706.688C563.366+709.666+563.734+712.844+563.906+716.594C564.143+721.759+564.013+728.232+563.594+736C563.4+739.579+563.143+743.317+562.844+747.312C562.537+751.399+561.773+760.316+561.75+760.656C560.429+780.475+561.515+797.884+565.719+810.594C569.946+823.377+575.833+828.554+586.812+828.656C586.914+828.573+586.994+828.527+587.312+828.188C588.991+826.396+590.96+823.131+593.375+817.875C594.114+816.267+597.763+807.806+598.875+805.438C599.255+804.628+599.628+803.869+600+803.125C602.878+797.369+605.039+791.374+608+781.312C608.318+780.232+608.53+779.467+609.156+777.312C612.916+764.384+614.909+758.333+618.281+750.625C622.799+740.299+627.068+732.093+635.844+716.312C636.062+715.92+636.319+715.455+636.781+714.625C642.466+704.405+645.148+699.479+648.094+693.594C648.129+693.5+648.153+693.345+648.219+693.125C648.392+692.542+648.985+690.169+649.031+689.969C650.054+685.545+650.622+683.377+651.844+680.312C653.952+675.024+657.016+670.383+661.531+666.562C668.032+661.062+675.473+658.121+683.469+657.5C686.005+657.303+688.078+657.289+690.375+657.469Z" opacity="1" fill="url(#LinearGradient_2)"/>
</g>
<g id="Layer 3" vectornator:layerName="Layer 3" visibility="hidden">
<path d="M522.938+57.2188C464.164+57.0678+408.167+69.2893+357.031+91.3438C359.299+94.8698+361.014+98.715+362.344+103C363.571+106.956+364.346+110.596+365.406+116.625C367.547+128.801+368.286+132.115+370.344+137.156C370.464+137.452+370.593+137.743+370.719+138.031C377.798+154.314+383.838+171.063+389.438+189.5C394.245+205.328+397.963+219.513+404.312+245.125C411.432+273.843+413.205+280.812+416.938+294.25C417.997+298.064+418.953+301.386+420.25+305.719C421.389+309.524+422.561+312.894+423.719+316.438C430.935+309.835+438.423+302.584+446.219+294.594C450.043+290.674+457.678+282.432+464.469+275.125C475+260.019+482.491+246.928+488.5+232.656C489.291+230.777+494.682+213.115+495.188+211.562C497.378+204.831+499.464+199.3+501.781+194.406C505.313+186.948+509.214+181.174+514.781+176.844C527.655+166.831+542.993+167.188+555.688+175.688C561.733+179.736+566.82+185.241+571.688+192.125C574.877+192.939+577.994+194.081+580.969+195.656C587.936+199.345+593.713+204.734+599.031+211.688C602.658+216.429+605.763+221.404+609.781+228.531C610.568+229.927+613.182+234.639+613.156+234.594C614.384+236.789+615.275+238.352+616.125+239.781C617.617+242.29+618.825+244.118+619.812+245.375C628.069+255.883+633.691+264.875+643.75+282.594C647.592+289.362+648.878+291.459+650.688+294.531C652.775+290.696+654.84+286.918+657+282.5C666.854+262.346+677.172+236.328+680.406+225.188C694.598+176.305+706.408+140.571+719.781+107.375C660.759+75.5789+593.914+57.401+522.938+57.2188ZM308.844+115.844C272.672+137.273+239.691+163.92+210.938+194.906C214.126+196.956+217.231+199.226+220.188+201.969C225.891+207.26+230.842+213.327+236.656+221.562C237.659+222.983+242.49+229.99+242.906+230.594C245.033+233.674+246.489+235.707+247.781+237.344C275.964+273.043+292.509+296.418+308.656+325.125C309.726+327.027+312.62+332.319+312.906+332.844C326.43+357.599+332.097+363.096+344.375+362.219C351.482+361.711+359.285+359.622+367.719+355.938C374.248+353.085+381.021+349.288+388+344.75C387.187+342.612+386.391+340.614+385.562+338.25C383.355+331.949+381.183+325.118+379.062+318.031C377.67+313.377+376.66+309.815+375.531+305.75C371.648+291.769+369.823+284.629+362.594+255.469C356.414+230.541+352.812+216.918+348.281+202C343.137+185.064+337.659+169.857+331.281+155.188C331.026+154.6+330.774+154+330.531+153.406C326.876+144.45+325.772+139.499+323.062+124.094C322.385+120.24+321.939+118.316+321.469+116.656C320.453+116.653+319.393+116.685+317.969+116.844C314.779+117.198+311.699+116.795+308.844+115.844ZM757+129.938C745.292+159.835+734.56+192.816+721.688+237.156C717.73+250.788+706.55+279.095+695.656+301.375C689.421+314.127+683.213+325.075+677.094+334.062C678.505+336.048+681.362+340.107+681.375+340.125C694.398+358.184+700.159+366.389+707+377.031C707.209+377.357+714.266+388.631+716.406+391.844C722.297+400.686+727.162+406.247+731.438+408.969C734.588+410.975+736.657+411.145+740.75+409.219C747.447+406.067+753.067+401.535+764.531+390.625C764.408+390.742+766.294+388.96+766.812+388.469C771.559+383.957+774.577+381.164+777.969+378.281C788.586+369.256+797.241+360.066+809.406+345.438C810.381+344.266+822.56+329.453+826.469+324.812C830.467+320.064+834.048+316.576+840.719+310.531C840.952+310.32+841.738+309.598+841.812+309.531C849.752+302.341+852.87+299.011+855.406+294.719C861.804+283.891+874.822+259.61+878.375+252.969C846.077+204.095+804.735+162.304+757+129.938ZM182.312+229.031C123.957+305.952+88.8966+403.068+88.625+508.844C88.5261+547.366+93.054+584.771+101.625+620.5C103.906+619.676+106.341+619.156+108.906+619.156C148.169+619.156+185.989+616.98+245.281+612C251.491+611.478+256.305+611.074+267.75+610.094C312.313+606.276+332.478+604.7+357.656+603.219C418.434+599.644+476.923+596.826+569.25+592.875C578.371+592.485+689.374+587.747+722.906+586.188C783.086+583.389+845.977+582.156+916.906+582.156C922.998+582.156+927.959+582.029+939.875+581.594C944.574+581.422+946.867+581.36+949.562+581.281C953.032+558.399+954.877+534.953+954.938+511.062C955.137+433.446+936.607+360.368+903.844+296.438C899.773+303.857+896.329+309.956+892.406+316.594C887.004+325.736+881.675+331.427+870.656+341.406C870.578+341.477+869.821+342.201+869.594+342.406C864.289+347.213+861.736+349.659+859.344+352.5C855.635+356.904+843.592+371.587+842.469+372.938C828.858+389.305+818.689+400.144+805.844+411.062C803.214+413.298+800.646+415.656+796.438+419.656C795.935+420.134+794.076+421.887+794.188+421.781C779.465+435.793+771.262+442.384+759.062+448.125C741.341+456.465+723.68+455.014+708.344+445.25C697.84+438.563+689.563+429.103+680.625+415.688C678.095+411.889+670.741+400.169+670.812+400.281C664.523+390.498+646.433+365.206+646.375+365.125C645.392+363.762+644.998+363.163+644.094+361.906C643.057+362.149+642.044+362.45+640.969+362.594C630.774+363.953+621.594+360.458+614.531+353.812C610.239+349.773+607.135+345.114+604.156+339.312C603.596+338.221+603.059+337.123+602.469+335.875C602.252+335.417+602.049+334.98+601.781+334.406C601.751+334.341+600.525+331.673+600.312+331.25C600.242+331.109+600.171+331.025+600.125+330.938C591.124+316.31+584.425+304.071+570.75+278.062C570.498+277.583+570.502+277.604+570.25+277.125C561.28+260.064+556.181+250.702+551.062+241.719C548.48+244.271+545.723+247.289+542.656+251C541.133+252.843+528.044+269.695+524.594+273.375C525.81+272.077+512.104+286.99+498.094+302.094C494.026+307.842+489.65+313.782+484.781+320.125C480.95+325.116+480.317+325.912+470.156+338.844C470.001+339.042+462.424+349.344+459.219+353.344C453.037+361.058+447.31+366.971+440.969+371.344C434.481+375.817+427.569+378.531+419.844+378.531C418.347+378.531+416.916+378.35+415.531+378.094C405.216+385.106+395.065+390.906+384.906+395.344C372.222+400.885+359.751+404.245+347.438+405.125C328.003+406.513+311.77+400.24+298.719+387.594C289.948+379.095+284.738+371.009+275.156+353.469C274.867+352.94+272.113+347.92+271.156+346.219C256.326+319.854+240.947+298.093+214.031+264C212.041+261.479+210.107+258.808+207.5+255.031C207.051+254.38+202.407+247.583+201.531+246.344C197.295+240.342+194.024+236.334+190.969+233.5C188.402+231.118+186.538+230.069+185.375+229.875C184.304+229.697+183.315+229.356+182.312+229.031ZM940.906+624.562C929.024+624.994+923.558+625.156+916.906+625.156C862.171+625.156+812.386+625.926+764.938+627.562C772.807+627.919+780.478+628.297+788.219+628.531C807.516+629.116+823.368+628.713+860.875+627.094C875.088+626.48+881.858+626.204+890.031+625.938C908.697+625.329+925.255+625.259+940.594+625.75C940.694+625.352+940.807+624.961+940.906+624.562ZM513.062+661.969C471.174+661.965+425.986+662.49+374.719+663.5C346.928+664.047+324.62+664.554+274.656+665.75C203.35+667.457+157.036+668.324+116.156+668.875C132.732+715.087+156.268+757.748+185.531+795.375C189.066+793.656+193.085+792.846+197.281+793.312C214.123+795.184+231.132+795.505+257.688+794.906C260.775+794.837+263.268+794.767+268.812+794.625C291.049+794.056+300.898+793.897+313.344+794.156C411.845+796.208+515.077+793.072+635.5+785.219C638.344+785.033+642.381+784.68+646.188+784.406C646.384+754.822+645.344+729.815+642.344+705.812C640.871+694.03+649.218+683.254+661+681.781C662.473+681.597+663.951+681.577+665.375+681.688C675.345+682.462+683.711+690.159+685+700.469C688.139+725.578+689.303+751.312+689.219+781.094C703.604+779.951+724.95+778.342+725.688+778.281C770.941+774.565+793.876+772.838+820.594+771.219C827.793+770.782+833.731+770.141+847.469+768.5C849.744+768.228+850.822+768.091+852.125+767.938C863.346+766.615+871.501+765.946+879.188+765.562C898.85+735.588+915.104+703.002+927.5+668.438C916.426+668.322+904.476+668.513+891.438+668.938C883.464+669.197+876.814+669.455+862.75+670.062C824.166+671.728+807.625+672.159+786.906+671.531C765.025+670.868+707.765+667.519+706.938+667.469C670.166+665.233+652.524+664.291+631.562+663.656C593.542+662.504+554.951+661.972+513.062+661.969ZM595.906+837.625C540.546+837.201+480.844+838.671+378.438+842.094C336.01+843.511+317.18+844.103+293.594+844.75C271.527+845.355+251.176+845.789+231.812+846.094C308.308+918.251+409.452+962.402+520.625+962.688C562.209+962.794+602.419+956.724+640.5+945.375C640.77+925.873+641.445+906.013+643.312+869.125C644.045+854.662+644.379+847.875+644.75+839.688C644.768+839.282+644.763+838.967+644.781+838.562C628.259+838.111+612.203+837.75+595.906+837.625ZM687.781+839.812C687.752+840.46+687.748+840.972+687.719+841.625C687.344+849.914+687.017+856.743+686.281+871.281C684.945+897.662+684.231+914.872+683.781+929.812C732.714+909.124+777.237+879.402+815.406+842.562C784.906+842.471+754.073+841.856+709.688+840.5C707.231+840.425+696.666+840.09+687.781+839.812Z" opacity="1" fill="url(#LinearGradient_3)"/>
<path d="M522.094+66.9688C464.781+66.9688+409.984+77.2534+359.469+95.875C360.556+98.1366+361.556+100.462+362.344+103C363.571+106.956+364.346+110.596+365.406+116.625C367.547+128.801+368.286+132.115+370.344+137.156C370.464+137.452+370.593+137.743+370.719+138.031C377.798+154.314+383.838+171.063+389.438+189.5C394.245+205.328+397.963+219.513+404.312+245.125C411.432+273.843+413.205+280.812+416.938+294.25C417.997+298.064+418.953+301.386+420.25+305.719C422.195+312.219+424.193+318.427+426.156+324.031C426.335+324.541+426.449+324.725+426.625+325.219C429.612+321.369+435.642+313.174+436.344+312.281C446.364+299.529+446.972+298.738+450.656+293.938C469.097+269.914+480.14+252.512+488.5+232.656C489.291+230.777+494.682+213.115+495.188+211.562C497.378+204.831+499.464+199.3+501.781+194.406C505.313+186.948+509.214+181.174+514.781+176.844C527.655+166.831+542.993+167.188+555.688+175.688C563.073+180.633+569.038+187.643+574.906+196.844C576.788+199.795+578.504+202.766+580.5+206.344C580.837+206.948+581.177+207.526+581.594+208.281C581.589+208.273+583.568+211.884+583.875+212.406C591.16+224.791+596.611+234.838+608.312+257.094C608.564+257.573+608.561+257.584+608.812+258.062C622.044+283.227+628.419+294.868+636.75+308.406C637.449+309.542+638.11+311.091+639.188+313.281C639.351+313.06+639.49+312.916+639.656+312.688C644.935+305.433+650.857+295.063+657+282.5C666.854+262.346+677.172+236.328+680.406+225.188C694.236+177.551+705.798+142.396+718.75+109.906C659.222+82.3986+592.527+66.9687+522.094+66.9688ZM311.906+116.562C166.312+189.721+66.8437+336.367+66.8438+505.5C66.8438+547.365+73.0639+587.809+84.4375+626.156C132.897+625.768+183.692+624.934+273.625+622.781C323.649+621.584+346.004+621.08+373.875+620.531C425.47+619.515+470.978+618.966+513.219+618.969C555.459+618.971+594.435+619.523+632.875+620.688C654.41+621.34+710.359+624.606+711.188+624.656C749.794+627.004+766.919+627.886+788.219+628.531C807.516+629.116+823.368+628.713+860.875+627.094C875.088+626.48+881.858+626.204+890.031+625.938C916.644+625.07+939.189+625.235+959.562+626.719C971.045+588.203+977.344+547.572+977.344+505.5C977.344+346.113+889.053+206.621+757.031+129.844C745.309+159.766+734.574+192.77+721.688+237.156C717.73+250.788+706.55+279.095+695.656+301.375C688.509+315.993+681.386+328.407+674.406+338C670.117+343.896+665.836+348.785+661.375+352.656C655.197+358.016+648.585+361.578+640.969+362.594C630.774+363.953+621.594+360.458+614.531+353.812C610.239+349.773+607.135+345.114+604.156+339.312C603.596+338.221+603.059+337.123+602.469+335.875C602.252+335.417+602.049+334.98+601.781+334.406C601.751+334.341+600.525+331.673+600.312+331.25C600.242+331.109+600.171+331.025+600.125+330.938C591.124+316.31+584.425+304.071+570.75+278.062C570.498+277.583+570.502+277.604+570.25+277.125C558.865+255.47+553.637+245.821+546.812+234.219C547.338+235.113+540.8+223.379+538.625+219.969C538.457+219.705+538.322+219.567+538.156+219.312C537.453+221.2+536.834+222.506+536.062+224.875C536.319+224.087+529.925+245.068+528.125+249.344C518.072+273.219+505.266+293.439+484.781+320.125C480.95+325.116+480.317+325.912+470.156+338.844C470.001+339.042+462.424+349.344+459.219+353.344C453.037+361.058+447.31+366.971+440.969+371.344C434.481+375.817+427.569+378.531+419.844+378.531C414.509+378.531+409.881+376.8+406+374.094C403.656+372.46+401.74+370.573+400+368.438C397.771+365.702+395.865+362.536+393.969+358.781C391.226+353.351+388.445+346.479+385.562+338.25C383.355+331.949+381.183+325.118+379.062+318.031C377.67+313.377+376.66+309.815+375.531+305.75C371.648+291.769+369.823+284.629+362.594+255.469C356.414+230.541+352.812+216.918+348.281+202C343.137+185.064+337.659+169.857+331.281+155.188C331.026+154.6+330.774+154+330.531+153.406C326.876+144.45+325.772+139.499+323.062+124.094C322.385+120.24+321.939+118.316+321.469+116.656C320.453+116.653+319.393+116.685+317.969+116.844C315.884+117.075+313.872+116.908+311.906+116.562ZM513.062+661.969C471.174+661.965+425.986+662.49+374.719+663.5C346.928+664.047+324.62+664.554+274.656+665.75C193.458+667.694+144.498+668.55+99.6875+669.031C120.591+719.082+150.812+764.54+188.25+803.469C220.157+803.365+253.472+802.848+292.406+801.781C315.877+801.138+334.659+800.54+377+799.125C510.558+794.661+572.291+793.552+646.156+795.562C646.773+760.681+645.723+732.85+642.344+705.812C640.871+694.03+649.218+683.254+661+681.781C662.473+681.597+663.951+681.577+665.375+681.688C675.345+682.462+683.711+690.159+685+700.469C688.688+729.974+689.826+759.75+689.156+796.812C698.002+797.088+708.56+797.425+711+797.5C758.537+798.952+790.571+799.625+822.969+799.625C826.652+799.625+829.544+799.673+835.906+799.812C846.104+800.036+853.401+799.889+859.688+799.438C895.401+761.372+924.336+717.301+944.531+668.906C928.848+668.226+911.463+668.285+891.438+668.938C883.464+669.197+876.814+669.455+862.75+670.062C824.166+671.728+807.625+672.159+786.906+671.531C765.025+670.868+707.765+667.519+706.938+667.469C670.166+665.233+652.524+664.291+631.562+663.656C593.542+662.504+554.951+661.972+513.062+661.969ZM595.906+837.625C540.546+837.201+480.844+838.671+378.438+842.094C336.01+843.511+317.18+844.103+293.594+844.75C272.845+845.319+253.73+845.728+235.406+846.031C313.656+907.282+413.396+944.031+522.094+944.031C563.17+944.031+602.946+938.777+640.781+928.938C641.233+913.584+641.952+895.991+643.312+869.125C644.045+854.662+644.379+847.875+644.75+839.688C644.768+839.282+644.763+838.967+644.781+838.562C628.259+838.111+612.203+837.75+595.906+837.625ZM687.781+839.812C687.752+840.46+687.748+840.972+687.719+841.625C687.344+849.914+687.017+856.743+686.281+871.281C685.319+890.278+684.762+903.047+684.281+915.25C731.495+897.863+774.96+873.172+813.125+842.531C783.327+842.415+753+841.823+709.688+840.5C707.231+840.425+696.666+840.09+687.781+839.812Z" opacity="1" fill="url(#LinearGradient_4)"/>
</g>
</svg>
